<?xml version='1.0' encoding='utf8'?>
<svg version="1.1" width="400" height="422.0" xmlns="http://www.w3.org/2000/svg" xmlns:xlink="http://www.w3.org/1999/xlink"><style>@media(prefers-color-scheme:light){svg{fill:#000000;color:#000000;background-color:#FFFFFF;}}@media(prefers-color-scheme:dark){svg{fill:#FFFFFF;color:#FFFFFF;background-color:#000000;}}</style><text x="125" y="15.666666666666668" font-size="14" text-anchor="middle">Part 0</text><rect x="75.0" y="1.0" width="100" height="20" fill="none" stroke="currentColor" /><polyline points="125.0,26.0 125.0,76.0" fill="none" stroke="currentColor" /><polyline points="130.0,66.0 125.0,76.0 120.0,66.0" fill="none" stroke="currentColor" /><text x="130" y="55.666666666666664" font-size="14" text-anchor="left">Command 1</text><text x="125" y="95.66666666666667" fill="red" font-size="14" text-anchor="middle">Part 1</text><rect x="75.0" y="81.0" width="100" height="20" fill="none" stroke="currentColor" /><polyline points="125.0,106.0 125.0,156.0" fill="none" stroke="currentColor" /><polyline points="130.0,146.0 125.0,156.0 120.0,146.0" fill="none" stroke="currentColor" /><text x="130" y="135.66666666666666" fill="red" font-size="14" text-anchor="left">Command 2</text><text x="125" y="175.66666666666666" font-size="14" text-anchor="middle">Part 2</text><rect x="75.0" y="161.0" width="100" height="20" fill="none" stroke="currentColor" /><polyline points="125.0,186.0 125.0,236.0" fill="none" stroke="currentColor" /><polyline points="130.0,226.0 125.0,236.0 120.0,226.0" fill="none" stroke="currentColor" /><text x="130" y="215.66666666666666" fill="red" font-size="14" text-anchor="left">Command 3</text><text x="125" y="255.66666666666666" font-size="14" text-anchor="middle">Part 3</text><rect x="75.0" y="241.0" width="100" height="20" fill="none" stroke="currentColor" /><polyline points="125.0,266.0 125.0,316.0" fill="none" stroke="currentColor" /><polyline points="130.0,306.0 125.0,316.0 120.0,306.0" fill="none" stroke="currentColor" /><text x="130" y="295.6666666666667" fill="red" font-size="14" text-anchor="left">Command 4</text><text x="125" y="335.6666666666667" font-size="14" text-anchor="middle">Part 4</text><rect x="75.0" y="321.0" width="100" height="20" fill="none" stroke="currentColor" /><text x="125" y="415.6666666666667" font-size="14" text-anchor="middle">Part 5</text><rect x="75.0" y="401.0" width="100" height="20" fill="none" stroke="currentColor" /><polyline points="180.0,331.0 230.0,331.0" fill="none" stroke="currentColor" /><polyline points="220.0,326.0 230.0,331.0 220.0,336.0" fill="none" stroke="currentColor" /><rect x="235.0" y="321.0" width="100" height="20" fill="none" stroke="currentColor" /><text x="285" y="335.6666666666667" font-size="14" text-anchor="middle">abort</text></svg>