<?xml version='1.0' encoding='utf8'?>
<svg version="1.1" width="300" height="400" xmlns="http://www.w3.org/2000/svg" xmlns:xlink="http://www.w3.org/1999/xlink"><style>@media(prefers-color-scheme:light){svg{fill:#000000;color:#000000;background-color:#FFFFFF;}}@media(prefers-color-scheme:dark){svg{fill:#FFFFFF;color:#FFFFFF;background-color:#000000;}}</style><text x="125" y="54.666666666666664" font-size="14" text-anchor="middle">Part 0</text><rect x="75.0" y="40.0" width="100" height="20" fill="none" stroke="currentColor" /><polyline points="125.0,65.0 125.0,115.0" fill="none" stroke="currentColor" /><polyline points="130.0,105.0 125.0,115.0 120.0,105.0" fill="none" stroke="currentColor" /><text x="130" y="94.66666666666667" font-size="14" text-anchor="left">Command 1</text><text x="125" y="134.66666666666666" font-size="14" text-anchor="middle">Part 1</text><rect x="75.0" y="120.0" width="100" height="20" fill="none" stroke="currentColor" /><polyline points="125.0,145.0 125.0,195.0" fill="none" stroke="currentColor" /><polyline points="130.0,185.0 125.0,195.0 120.0,185.0" fill="none" stroke="currentColor" /><text x="130" y="174.66666666666666" font-size="14" text-anchor="left">Command 2</text><text x="125" y="214.66666666666666" font-size="14" text-anchor="middle">Part 2</text><rect x="75.0" y="200.0" width="100" height="20" fill="none" stroke="currentColor" /><polyline points="125.0,225.0 125.0,275.0" fill="none" stroke="currentColor" /><polyline points="130.0,265.0 125.0,275.0 120.0,265.0" fill="none" stroke="currentColor" /><text x="130" y="254.66666666666666" font-size="14" text-anchor="left">Command 3</text><text x="125" y="294.6666666666667" font-size="14" text-anchor="middle">Part 3</text><rect x="75.0" y="280.0" width="100" height="20" fill="none" stroke="currentColor" /><text x="125" y="374.6666666666667" font-size="14" text-anchor="middle">Part 4</text><rect x="75.0" y="360.0" width="100" height="20" fill="none" stroke="currentColor" /></svg>